<svg width="100" height="100" viewBox="0 0 100 100" fill="none" xmlns="http://www.w3.org/2000/svg">
<path d="M57.9259 20L73.4251 20C75.8464 20 77.7125 22.1343 77.3893 24.534L69.0383 86.534C68.7709 88.5188 67.0769 90 65.0741 90L49.5749 90C47.1536 90 45.2875 87.8657 45.6107 85.466L53.9617 23.466C54.2291 21.4812 55.9231 20 57.9259 20Z" fill="#EE781E"/>
<path d="M93 67.5L93 86C93 88.2091 91.2091 90 89 90L82 90C79.7909 90 78 88.2091 78 86L78 34C78 31.7909 79.7909 30 82 30L89 30C91.2091 30 93 31.7909 93 34L93 67.5Z" fill="#EE781E"/>
<path d="M45.0004 86C45.0004 88.2091 43.2095 90 41.0004 90H10.3765C7.69707 90 5.77528 87.4171 6.54522 84.8506L19.5446 41.5194C19.8374 40.5434 19.7467 39.4925 19.291 38.5812L7.89483 15.7889C6.56503 13.1292 8.49901 10 11.4725 10H41.0004C43.2095 10 45.0004 11.7909 45.0004 14V86ZM28.5004 14C25.4628 14 23.0004 16.4624 23.0004 19.5C23.0004 22.5376 25.4628 25 28.5004 25C31.5378 24.9998 34.0004 22.5374 34.0004 19.5C34.0004 16.4626 31.5378 14.0002 28.5004 14Z" fill="#EE781E"/>
</svg>
